<!DOCTYPE svg PUBLIC "-//W3C//DTD SVG 1.1//EN" "http://www.w3.org/Graphics/SVG/1.1/DTD/svg11.dtd">
<!-- Uploaded to: SVG Repo, www.svgrepo.com, Transformed by: SVG Repo Mixer Tools -->
<svg fill="#474747" width="64px" height="64px" viewBox="0 0 24 24" xmlns="http://www.w3.org/2000/svg" stroke="#474747" stroke-width="0.00024000000000000003">
<g id="SVGRepo_bgCarrier" stroke-width="0"/>
<g id="SVGRepo_tracerCarrier" stroke-linecap="round" stroke-linejoin="round"/>
<g id="SVGRepo_iconCarrier">
<path d="M8,3V7H21l-2,7H8v2H18a1,1,0,0,1,0,2H7a1,1,0,0,1-1-1V4H4A1,1,0,0,1,4,2H7A1,1,0,0,1,8,3ZM6,20.5A1.5,1.5,0,1,0,7.5,19,1.5,1.5,0,0,0,6,20.5Zm9,0A1.5,1.5,0,1,0,16.5,19,1.5,1.5,0,0,0,15,20.5Z"/>
</g>
</svg>